The Presidents Man (2000) DVDRip.x264.AC3 - Psix


 
http://www.imdb.com/title/tt0234516/




A U.S. president's highly classified secret agent must find a fearless replacement to take over his extremely dangerous military missions.



The Presidents Man (2000)
Directors: Eric Norris, Michael Preece
Writer: Bob Gookin
Stars: Chuck Norris, Dylan Neal and Jennifer Tung




The Presidents Man (2000) DVDRip.x264.AC3 - Psix.mkv
Format : Matroska
Format version : Version 2
File size : 1.36 GiB
Duration : 1h 26mn
Overall bit rate : 2 253 Kbps
Writing application : HandBrake 0.9.5
Writing library : libmkv 0.6.4.1

Video
ID : 1
Format : AVC
Format/Info : Advanced Video Codec
Format profile : High@L3.0
Format settings, CABAC : Yes
Format settings, ReFrames : 4 frames
Codec ID : V_MPEG4/ISO/AVC
Duration : 1h 26mn
Bit rate : 1 990 Kbps
Width : 720 pixels
Height : 544 pixels
Display aspect ratio : 4:3
Frame rate mode : Variable
Frame rate : 25.000 fps
Color space : YUV
Chroma subsampling : 4:2:0
Bit depth : 8 bits
Scan type : Progressive
Bits/(Pixel*Frame) : 0.203
Stream size : 1.18 GiB (87%)
Writing library : x264 core 112


Audio
ID : 2
Format : AC-3
Format/Info : Audio Coding 3
Mode extension : CM (complete main)
Format settings, Endianness : Big
Codec ID : A_AC3
Duration : 1h 26mn
Bit rate mode : Constant
Bit rate : 256 Kbps
Channel(s) : 2 channels
Channel positions : Front: L R
Sampling rate : 48.0 KHz
Bit depth : 16 bits
Compression mode : Lossy
Stream size : 158 MiB (11%)
Language : English
Default : Yes
Forced : No

Text
ID : 3
Format : VobSub
Codec ID : S_VOBSUB
Codec ID/Info : The same subtitle format used on DVDs
Language : Greek
Default : Yes
Forced : No

Menu
00:00:00.000 : Chapter 1
00:02:01.160 : Chapter 2
00:06:50.800 : Chapter 3
00:15:07.400 : Chapter 4
00:28:21.960 : Chapter 5
00:31:55.160 : Chapter 6
00:52:16.120 : Chapter 7
00:58:34.160 : Chapter 8
01:23:06.800 : Chapter 9
01:25:36.040 : Chapter 10
01:26:29.600 : Chapter 11


Source - DVD

Subs Greek
Language English


 
http://img515.imageshack.us/img515/9043/24464398.jpg 
http://img716.imageshack.us/img716/1779/85399892.jpg 
http://img515.imageshack.us/img515/8304/37664271.jpg